<svg xmlns="http://www.w3.org/2000/svg"  viewBox="0 0 48 48" width="48px" height="48px"><path fill="#74cccf" d="M24.066,44.453l0.212-7.854c0,0-11.42-3.226-11.929-12.481s11.815-12.29,11.815-12.29l0.963-8.979 c0,0-6.071-0.892-15.665,8.193S6.108,33.5,6.108,33.5S11.373,43.264,24.066,44.453z"/><polygon fill="#74cccf" points="25,20.212 24.958,28.321 34.637,28.151 34.127,37.618 43.594,37.83 42.278,19.618"/><path fill="#010101" d="M42.952,19.662c-0.008-0.329-0.275-0.488-0.53-0.48c-5.884-0.177-11.773,0.02-17.632,0.59 c-0.198,0.019-0.327,0.133-0.402,0.274c-0.108,0.08-0.186,0.203-0.188,0.378c-0.033,2.547-0.067,5.094-0.1,7.641 c-0.003,0.199,0.095,0.329,0.226,0.405c0.08,0.109,0.203,0.188,0.377,0.193c3.094,0.08,6.188,0.099,9.283,0.067 c0.047,1.327,0.179,2.657,0.183,3.978c0.002,0.802-0.145,1.622-0.274,2.411c-0.128,0.786-0.241,1.625-0.546,2.366 c-0.124,0.302,0.187,0.641,0.482,0.633c1.34-0.037,2.682-0.043,4.022-0.028c1.871,0.021,3.714,0.201,5.576,0.314 c0.254,0.016,0.521-0.242,0.5-0.5C43.431,31.834,43.105,25.751,42.952,19.662z M34.524,37.113c0.155-0.566,0.242-1.161,0.334-1.728 c0.139-0.853,0.293-1.734,0.308-2.6c0.014-0.835-0.112-1.686-0.144-2.523c-0.026-0.678-0.045-1.356-0.056-2.034 c-0.004-0.268-0.226-0.503-0.5-0.5c-3.121,0.039-6.242,0.017-9.363-0.059c0.03-2.31,0.06-4.62,0.091-6.93 c5.575-0.526,11.176-0.714,16.774-0.564c0.153,5.738,0.46,11.47,0.92,17.192c-1.679-0.112-3.347-0.258-5.036-0.278 C36.743,37.077,35.633,37.091,34.524,37.113z"/><path fill="#010101" d="M24.39,36.298c-1.414-0.155-2.648-0.955-3.841-1.67c-1.138-0.682-2.276-1.389-3.223-2.328 c-0.471-0.467-0.882-0.989-1.364-1.444c-0.541-0.51-1.047-0.971-1.401-1.639c-0.613-1.158-1.076-2.501-1.403-3.766 c-0.882-3.41,0.739-6.969,3.235-9.291c2.227-2.071,5.071-2.941,7.903-3.85c0.154-0.049,0.321-0.177,0.349-0.349 c0.48-2.943,1.001-5.967,1.027-8.953c0.002-0.263-0.165-0.413-0.362-0.461c-0.019-0.007-0.031-0.019-0.052-0.024 c-2.6-0.61-5.126,0.581-7.385,1.753c-2.342,1.215-4.554,2.67-6.61,4.323c-1.176,0.945-2.415,1.916-3.326,3.132 c-0.738,0.985-1.37,2.052-1.928,3.147C4.208,18.416,3.185,22.416,3.482,26.4c0.189,2.535,0.837,5.06,2.208,7.219 c1.244,1.96,2.794,3.736,4.548,5.255c3.948,3.422,8.895,5.573,14.096,6.083c0.271,0.027,0.498-0.251,0.5-0.5 c0.019-2.553,0.038-5.106,0.057-7.659C24.892,36.506,24.658,36.328,24.39,36.298z M7.548,34.549 c-0.728-0.968-1.422-1.996-1.906-3.11c-0.48-1.104-0.774-2.311-0.974-3.495C4.005,24.026,4.764,19.959,6.4,16.368 c0.951-2.088,2.068-3.969,3.741-5.493c2.049-1.867,4.3-3.507,6.701-4.893c2.257-1.303,5.096-3.007,7.813-2.556 c-0.064,2.679-0.5,5.379-0.932,8.02c-2.65,0.851-5.268,1.705-7.455,3.501c-1.631,1.34-2.903,3.086-3.669,5.053 c-0.597,1.534-0.864,3.205-0.593,4.837c0.246,1.486,0.827,2.954,1.429,4.329c0.588,1.343,1.623,2.134,2.582,3.196 c1.114,1.234,2.424,2.163,3.842,3.019c1.279,0.772,2.56,1.551,4.029,1.836c-0.017,2.225-0.033,4.449-0.05,6.674 c-4.215-0.506-8.255-2.164-11.646-4.713C10.444,37.864,8.862,36.296,7.548,34.549z"/></svg>